<svg xmlns="http://www.w3.org/2000/svg" enable-background="new 0 0 512 512" viewBox="0 0 512 512" id="HealthDay">
  <g fill="#52cc99" class="color000000 svgShape">
    <g fill="#52cc99" class="color000000 svgShape">
      <g fill="#52cc99" class="color000000 svgShape">
        <path d="M473.81,512H141.66c-4.28,0-7.76-3.47-7.76-7.76s3.47-7.76,7.76-7.76h332.15c12.19,0,21.7-8.71,22.6-20.72
				c0.1-1.21,0.1-2.4,0.02-3.58l-22.99-332.17c-0.88-12.66-11.08-23.47-23.73-25.15l0,0c-0.07-0.01-0.13-0.02-0.2-0.03
				c-0.27-0.03-0.54-0.06-0.81-0.09c-0.12-0.01-0.24-0.02-0.35-0.03c-0.04-0.01-0.08-0.01-0.13-0.01c-0.13,0-0.26-0.01-0.39-0.03
				l-0.12-0.01c-0.12,0-0.23,0-0.35-0.01c-0.04,0-0.08,0-0.12,0c-0.35-0.02-0.64-0.03-0.94-0.03H272.24c-4.28,0-7.76-3.47-7.76-7.76
				s3.47-7.76,7.76-7.76h174.07c0.5,0,0.99,0.02,1.49,0.04c0.08,0,0.17,0,0.26,0.01c0.08,0,0.17,0,0.25,0.01c0,0,0.01,0,0.01,0
				c0.27,0.01,0.51,0.03,0.73,0.04c0.29,0.02,0.58,0.04,0.87,0.07c0.06,0,0.13,0.01,0.19,0.02c0.53,0.05,1.04,0.11,1.56,0.18
				c0.1,0.01,0.2,0.03,0.3,0.05c19.7,2.73,35.56,19.64,36.93,39.42l22.99,332.15c0.14,1.95,0.13,3.94-0.03,5.89
				C510.38,496.92,494.01,512,473.81,512z M446.87,114.61c0,0,0.01,0,0.01,0C446.88,114.61,446.88,114.61,446.87,114.61z" fill="#52cc99" class="color000000 svgShape"></path>
      </g>
      <g fill="#52cc99" class="color000000 svgShape">
        <path d="M379.39,511.99H47.24c-10.94,0-20.62-4.31-27.24-12.13c-6.72-7.95-9.4-18.43-7.54-29.51l37.8-224.44
				c0.71-4.22,4.71-7.07,8.94-6.36c4.22,0.71,7.07,4.71,6.36,8.94l-37.8,224.44c-1.09,6.5,0.36,12.51,4.08,16.92
				c3.62,4.28,9.09,6.64,15.39,6.64h332.15c14.12,0,28.06-11.97,30.45-26.13l39.18-232.63l16.76-99.53
				c1.96-11.63-4.28-21.16-15.18-23.18c-0.29-0.05-0.6-0.1-0.91-0.14l0,0c-0.06-0.01-0.13-0.02-0.19-0.03
				c-0.26-0.03-0.52-0.06-0.79-0.09c-0.12-0.01-0.24-0.02-0.35-0.03c-0.04-0.01-0.08-0.01-0.13-0.01c-0.1,0-0.2-0.01-0.3-0.02
				c-0.12-0.01-0.23-0.01-0.35-0.02c-0.06,0-0.11,0-0.17-0.01c-0.06,0-0.11,0-0.16,0c-0.31-0.01-0.62-0.02-0.94-0.02H272.24
				c-4.28,0-7.76-3.47-7.76-7.76s3.47-7.76,7.76-7.76h174.07c0.49,0,0.99,0.01,1.48,0.03c0.13,0,0.28,0.01,0.45,0.02
				c0.29,0.01,0.54,0.03,0.78,0.04c0.3,0.02,0.6,0.04,0.9,0.07c0.06,0,0.13,0.01,0.19,0.02c0.54,0.06,1.06,0.11,1.58,0.18
				c0.1,0.01,0.2,0.03,0.3,0.05c0.46,0.07,0.93,0.14,1.39,0.23c19.14,3.54,31.03,21.17,27.68,41.02l-16.76,99.53l-39.18,232.63
				C421.45,494.83,401.35,511.99,379.39,511.99z M446.87,114.61c0.1,0.01,0.2,0.02,0.3,0.03
				C447.07,114.63,446.97,114.62,446.87,114.61z" fill="#52cc99" class="color000000 svgShape"></path>
      </g>
      <g fill="#52cc99" class="color000000 svgShape">
        <g fill="#52cc99" class="color000000 svgShape">
          <g fill="#52cc99" class="color000000 svgShape">
            <path d="M124.47,363.81c-10.62,0-20-4.18-26.43-11.78c-6.52-7.72-9.12-17.89-7.31-28.64c3.57-21.22,23.03-37.84,44.3-37.84
						c10.62,0,20,4.18,26.43,11.78c6.52,7.71,9.12,17.88,7.31,28.64C165.2,347.19,145.74,363.81,124.47,363.81z M135.04,301.07
						c-13.45,0-26.73,11.4-29.01,24.9c-1.04,6.17,0.33,11.87,3.86,16.04c3.43,4.05,8.61,6.29,14.58,6.29
						c13.45,0,26.73-11.4,29.01-24.9c1.04-6.17-0.33-11.87-3.86-16.04C146.19,303.3,141.01,301.07,135.04,301.07z" fill="#52cc99" class="color000000 svgShape"></path>
          </g>
          <g fill="#52cc99" class="color000000 svgShape">
            <path d="M237.25,363.81c-10.62,0-20-4.18-26.43-11.78c-6.52-7.72-9.12-17.89-7.31-28.64c3.57-21.22,23.03-37.84,44.3-37.84
						c10.62,0,20,4.18,26.43,11.78c6.52,7.71,9.12,17.88,7.31,28.64C277.99,347.19,258.53,363.81,237.25,363.81z M247.82,301.07
						c-13.45,0-26.73,11.4-29,24.9c-1.04,6.17,0.33,11.87,3.86,16.04c3.43,4.05,8.61,6.29,14.58,6.29c13.45,0,26.73-11.4,29.01-24.9
						c1.04-6.17-0.33-11.87-3.86-16.04C258.98,303.3,253.8,301.07,247.82,301.07z" fill="#52cc99" class="color000000 svgShape"></path>
          </g>
          <g fill="#52cc99" class="color000000 svgShape">
            <path d="M350.04,363.81c-10.62,0-20-4.18-26.43-11.78c-6.52-7.71-9.12-17.89-7.31-28.64c3.57-21.22,23.04-37.84,44.3-37.84
						c10.62,0,20,4.18,26.43,11.78c6.52,7.71,9.12,17.88,7.31,28.64C390.77,347.19,371.31,363.81,350.04,363.81z M360.6,301.07
						c-13.45,0-26.73,11.4-29.01,24.9c-1.04,6.17,0.33,11.87,3.86,16.04c3.43,4.05,8.61,6.29,14.58,6.29c13.45,0,26.73-11.4,29-24.9
						c1.04-6.17-0.33-11.87-3.86-16.04C371.76,303.3,366.58,301.07,360.6,301.07z" fill="#52cc99" class="color000000 svgShape"></path>
          </g>
        </g>
        <g fill="#52cc99" class="color000000 svgShape">
          <g fill="#52cc99" class="color000000 svgShape">
            <path d="M106.13,472.75c-10.62,0-20-4.18-26.43-11.78c-6.52-7.71-9.12-17.89-7.31-28.64c3.57-21.22,23.03-37.84,44.3-37.84
						c10.62,0,20,4.18,26.43,11.78c6.52,7.71,9.12,17.88,7.31,28.64C146.86,456.13,127.4,472.75,106.13,472.75z M116.69,410.01
						c-13.45,0-26.73,11.4-29.01,24.9c-1.04,6.17,0.33,11.87,3.86,16.04c3.43,4.05,8.61,6.29,14.58,6.29h0
						c13.45,0,26.73-11.4,29.01-24.9c1.04-6.17-0.33-11.87-3.86-16.04C127.85,412.24,122.67,410.01,116.69,410.01z" fill="#52cc99" class="color000000 svgShape"></path>
          </g>
          <g fill="#52cc99" class="color000000 svgShape">
            <path d="M218.91,472.75c-10.62,0-20-4.18-26.43-11.78c-6.52-7.71-9.12-17.88-7.31-28.64c3.57-21.22,23.04-37.84,44.3-37.84
						c10.62,0,20,4.18,26.43,11.78c6.52,7.71,9.12,17.88,7.31,28.64C259.64,456.13,240.18,472.75,218.91,472.75z M229.48,410.01
						c-13.45,0-26.73,11.4-29.01,24.9c-1.04,6.17,0.33,11.87,3.86,16.04c3.43,4.05,8.61,6.29,14.58,6.29c13.45,0,26.73-11.4,29-24.9
						c1.04-6.17-0.33-11.87-3.86-16.04C240.63,412.24,235.45,410.01,229.48,410.01z" fill="#52cc99" class="color000000 svgShape"></path>
          </g>
          <g fill="#52cc99" class="color000000 svgShape">
            <path d="M331.69,472.75c-10.62,0-20-4.18-26.43-11.78c-6.52-7.71-9.12-17.88-7.31-28.64c3.57-21.22,23.04-37.84,44.3-37.84
						c10.62,0,20,4.18,26.43,11.78c6.52,7.71,9.12,17.88,7.31,28.64C372.42,456.13,352.96,472.75,331.69,472.75z M342.26,410.01
						c-13.45,0-26.73,11.4-29.01,24.9c-1.04,6.17,0.33,11.87,3.86,16.04c3.43,4.05,8.61,6.28,14.58,6.28
						c13.45,0,26.73-11.4,29.01-24.9c1.04-6.17-0.33-11.87-3.86-16.04C353.41,412.24,348.23,410.01,342.26,410.01z" fill="#52cc99" class="color000000 svgShape"></path>
          </g>
        </g>
      </g>
      <g fill="#52cc99" class="color000000 svgShape">
        <path d="M456.67,246.76H262.74c-4.28,0-7.76-3.47-7.76-7.76c0-4.28,3.47-7.76,7.76-7.76h193.93c4.28,0,7.76,3.47,7.76,7.76
				C464.42,243.29,460.95,246.76,456.67,246.76z" fill="#52cc99" class="color000000 svgShape"></path>
      </g>
      <g fill="#52cc99" class="color000000 svgShape">
        <path d="M397.24,512c-1.97,0-3.94-0.75-5.45-2.24c-3.05-3.01-3.08-7.92-0.06-10.97l53.62-54.25
				c10.26-10.37,27.13-10.39,37.6-0.07l26.65,26.37c3.05,3.01,3.07,7.93,0.06,10.97c-3.01,3.05-7.92,3.07-10.97,0.06l-26.65-26.36
				c-4.38-4.32-11.42-4.35-15.67-0.06l-53.62,54.24C401.24,511.23,399.24,512,397.24,512z" fill="#52cc99" class="color000000 svgShape"></path>
      </g>
    </g>
    <g fill="#52cc99" class="color000000 svgShape">
      <g fill="#52cc99" class="color000000 svgShape">
        <path d="M142.37,284.73C63.86,284.73,0,220.87,0,142.37C0,63.86,63.86,0,142.37,0s142.37,63.86,142.37,142.37
				c0,25.95-7.02,51.23-20.32,73.33l14.65,53.61c0.73,2.67-0.02,5.53-1.97,7.5c-1.95,1.97-4.8,2.75-7.48,2.05l-54.26-14.25
				C193.33,277.79,168.17,284.73,142.37,284.73z M142.37,15.52c-69.95,0-126.85,56.9-126.85,126.85s56.9,126.85,126.85,126.85
				c24.01,0,47.39-6.75,67.61-19.51c1.82-1.15,4.03-1.49,6.11-0.94l44.47,11.68l-12-43.91c-0.58-2.11-0.24-4.36,0.94-6.21
				c12.91-20.3,19.73-43.8,19.73-67.96C269.22,72.42,212.31,15.52,142.37,15.52z" fill="#52cc99" class="color000000 svgShape"></path>
      </g>
      <g fill="#52cc99" class="color000000 svgShape">
        <path d="M150.28,226.08h-15.83c-11.28,0-20.45-9.18-20.45-20.45v-29.95c0-2.72-2.22-4.94-4.94-4.94H79.11
				c-11.28,0-20.45-9.18-20.45-20.45v-15.83c0-11.28,9.18-20.45,20.45-20.45h29.95c2.72,0,4.94-2.21,4.94-4.94V79.11
				c0-11.28,9.18-20.45,20.45-20.45h15.83c11.28,0,20.45,9.18,20.45,20.45v29.95c0,2.72,2.22,4.94,4.94,4.94h29.95
				c11.28,0,20.45,9.18,20.45,20.45v15.83c0,11.28-9.18,20.45-20.45,20.45h-29.95c-2.72,0-4.94,2.22-4.94,4.94v29.95
				C170.74,216.9,161.56,226.08,150.28,226.08z M79.11,129.51c-2.72,0-4.94,2.22-4.94,4.94v15.83c0,2.72,2.22,4.94,4.94,4.94h29.95
				c11.28,0,20.45,9.18,20.45,20.45v29.95c0,2.72,2.22,4.94,4.94,4.94h15.83c2.72,0,4.94-2.22,4.94-4.94v-29.95
				c0-11.28,9.18-20.45,20.45-20.45h29.95c2.72,0,4.94-2.21,4.94-4.94v-15.83c0-2.72-2.22-4.94-4.94-4.94h-29.95
				c-11.28,0-20.45-9.18-20.45-20.45V79.11c0-2.72-2.22-4.94-4.94-4.94h-15.83c-2.72,0-4.94,2.22-4.94,4.94v29.95
				c0,11.28-9.18,20.45-20.45,20.45H79.11z" fill="#52cc99" class="color000000 svgShape"></path>
      </g>
    </g>
  </g>
</svg>
